<?xml version="1.0" standalone="no"?>
<!DOCTYPE svg PUBLIC "-//W3C//DTD SVG 20010904//EN"
 "http://www.w3.org/TR/2001/REC-SVG-20010904/DTD/svg10.dtd">
<svg version="1.0" xmlns="http://www.w3.org/2000/svg"
 width="93.000000pt" height="96.000000pt" viewBox="0 0 93.000000 96.000000"
 preserveAspectRatio="xMidYMid meet">

<g transform="translate(0.000000,96.000000) scale(0.100000,-0.100000)"
fill="#000000" stroke="none">
<path d="M355 896 c-220 -55 -365 -275 -327 -496 32 -188 174 -330 362 -362
291 -50 552 211 502 502 -43 254 -290 417 -537 356z m269 -64 c91 -42 149
-100 194 -190 35 -72 37 -81 37 -172 0 -91 -2 -100 -37 -172 -45 -91 -103
-147 -196 -191 -61 -29 -76 -32 -162 -32 -86 0 -101 3 -162 32 -93 44 -151
100 -196 191 -35 72 -37 81 -37 171 0 87 3 102 32 163 40 85 97 147 172 186
78 42 122 52 213 48 61 -3 92 -11 142 -34z"/>
<path d="M332 653 c-90 -44 -73 -169 26 -189 18 -4 31 -12 29 -18 -2 -6 0 -18
4 -28 7 -13 2 -17 -29 -23 -121 -20 -163 -123 -69 -165 76 -35 175 -20 211 31
9 13 16 41 16 62 0 33 -6 45 -40 76 -22 20 -40 42 -40 50 0 7 14 29 30 48 34
39 40 89 14 128 -15 24 -15 25 2 25 11 0 26 5 34 10 28 18 -151 12 -188 -7z
m92 -34 c29 -34 35 -93 13 -123 -21 -29 -67 -17 -94 23 -27 40 -29 78 -7 109
22 31 57 28 88 -9z m37 -268 c34 -35 36 -50 9 -84 -39 -49 -131 -45 -166 7
-34 53 10 105 89 106 30 0 45 -7 68 -29z"/>
<path d="M580 500 c0 -25 -4 -30 -25 -30 -18 0 -25 -5 -25 -20 0 -15 7 -20 25
-20 21 0 25 -5 25 -30 0 -23 5 -30 19 -30 14 0 21 8 23 28 2 21 9 28 31 30 19
2 27 9 27 22 0 13 -8 20 -27 22 -22 2 -29 9 -31 31 -2 19 -9 27 -23 27 -14 0
-19 -7 -19 -30z"/>
</g>
</svg>
